<svg width="74" height="17" viewBox="0 0 74 17" fill="none" xmlns="http://www.w3.org/2000/svg">
<path d="M0.84 15H5.26L5.9 12.96H10.44L11.04 15H15.6L10.4 0.719999H6.1L0.84 15ZM6.86 9.9L8.24 5.5H8.28L9.56 9.9H6.86ZM30.6736 14.6L28.9736 12.86C30.0336 11.56 30.6336 9.86 30.6336 7.86C30.6336 3.5 27.7336 0.38 23.3936 0.38C19.0536 0.38 16.1536 3.5 16.1536 7.86C16.1536 12.22 19.0536 15.34 23.3936 15.34C24.7336 15.34 25.9736 15.08 26.7736 14.58L28.6936 16.56L30.6736 14.6ZM22.7736 10.46L23.9736 11.7C23.7736 11.76 23.5736 11.78 23.3936 11.78C22.2736 11.78 20.5536 11.04 20.5536 7.86C20.5536 4.68 22.2736 3.94 23.3936 3.94C24.5136 3.94 26.2336 4.68 26.2336 7.86C26.2336 8.6 26.1336 9.24 25.9536 9.76L24.7536 8.54L22.7736 10.46ZM32.4916 15H44.5316V11.34H36.8916V9.56H43.6316V6.16H36.8916V4.38H44.3116V0.719999H32.4916V15ZM46.5936 15H50.7536V7.2H50.7936L55.1736 15H59.4536V0.719999H55.2936V8.36H55.2536L51.0936 0.719999H46.5936V15ZM61.7494 15H73.7894V11.34H66.1494V9.56H72.8894V6.16H66.1494V4.38H73.5694V0.719999H61.7494V15Z" fill="#506581"/>
</svg>
