<svg xmlns="http://www.w3.org/2000/svg" width="48" height="69" viewBox="0 0 48 69">
    <g fill="none" fill-rule="evenodd">
        <g fill="#413C2D" fill-rule="nonzero">
            <g>
                <path d="M20.203 39.805C9.046 39.805 0 30.895 0 19.902.001 8.911 9.046 0 20.203 0c5.364.061 10.493 2.183 14.293 5.915l-5.908 5.538c-2.044-2.487-5.138-3.907-8.385-3.848-6.766 0-12.007 5.632-12.007 12.204 0 6.572 5.24 12.298 12.007 12.298v7.698zm20.487-10.89c6.026 5.92 8.389 14.557 6.198 22.658-2.19 8.102-8.602 14.436-16.818 16.618-8.217 2.182-16.991-.121-23.017-6.04C2.504 57.748-.04 51.718 0 45.437h8.196c-.019 6.305 3.832 11.996 9.746 14.405 5.914 2.408 12.72 1.057 17.225-3.421 6.003-6.056 6.003-15.725 0-21.78l5.523-5.727z" transform="translate(-32 -22) translate(32 22)"/>
            </g>
        </g>
    </g>
</svg>
