<svg width="8" height="14" viewBox="0 0 8 14" fill="none" xmlns="http://www.w3.org/2000/svg">
<path d="M0.689699 7.45639H2.22431V13.7742C2.22431 13.8989 2.32538 14 2.45012 14H5.05212C5.17686 14 5.27793 13.8989 5.27793 13.7742V7.48617H7.04212C7.15683 7.48617 7.25335 7.40009 7.26645 7.28615L7.53439 4.96027C7.54174 4.89628 7.52148 4.83219 7.47866 4.78417C7.43581 4.73613 7.37448 4.70862 7.31012 4.70862H5.27804V3.25062C5.27804 2.81113 5.51467 2.58825 5.98148 2.58825C6.04801 2.58825 7.31012 2.58825 7.31012 2.58825C7.43486 2.58825 7.53592 2.48713 7.53592 2.36245V0.227473C7.53592 0.10273 7.43486 0.00166797 7.31012 0.00166797H5.47904C5.46613 0.00103906 5.43745 0 5.39518 0C5.07747 0 3.97314 0.062371 3.10079 0.864883C2.13424 1.75421 2.26861 2.819 2.30071 3.00363V4.70857H0.689672C0.56493 4.70857 0.463867 4.80963 0.463867 4.93437V7.23056C0.463895 7.35528 0.564957 7.45639 0.689699 7.45639Z" fill="white"/>
</svg>
