<svg width="14" height="14" viewBox="0 0 14 14" fill="none" xmlns="http://www.w3.org/2000/svg">
<g clip-path="url(#clip0)">
<path d="M3.1027 8.45988L2.61538 10.2791L0.834231 10.3168C0.30193 9.3295 0 8.1999 0 6.99951C0 5.83874 0.282297 4.74411 0.782688 3.78027H0.78307L2.36879 4.07099L3.06343 5.6472C2.91804 6.07105 2.8388 6.52605 2.8388 6.99951C2.83886 7.51335 2.93193 8.00567 3.1027 8.45988Z" fill="#FBBB00"/>
<path d="M13.8777 5.69238C13.9581 6.11583 14 6.55314 14 7.00007C14 7.50123 13.9473 7.99008 13.847 8.46162C13.5062 10.0662 12.6158 11.4674 11.3824 12.4589L11.382 12.4585L9.38469 12.3566L9.10201 10.592C9.92046 10.112 10.5601 9.36085 10.897 8.46162H7.15393V5.69238H10.9516H13.8777Z" fill="#518EF8"/>
<path d="M11.3822 12.459L11.3825 12.4594C10.1829 13.4236 8.65908 14.0005 7.00024 14.0005C4.33447 14.0005 2.01679 12.5105 0.834473 10.3179L3.10294 8.46094C3.69408 10.0386 5.21601 11.1617 7.00024 11.1617C7.76715 11.1617 8.48564 10.9544 9.10216 10.5925L11.3822 12.459Z" fill="#28B446"/>
<path d="M11.4681 1.61153L9.20041 3.46806C8.56234 3.06923 7.80809 2.83883 7.00003 2.83883C5.17541 2.83883 3.62502 4.01343 3.06348 5.64769L0.783098 3.78077H0.782715C1.94772 1.53461 4.29464 0 7.00003 0C8.69848 0 10.2558 0.605008 11.4681 1.61153Z" fill="#F14336"/>
</g>
<defs>
<clipPath id="clip0">
<rect width="14" height="14" fill="white"/>
</clipPath>
</defs>
</svg>
