<svg width="14" height="14" viewBox="0 0 14 14" fill="none" xmlns="http://www.w3.org/2000/svg">
<path d="M0.287074 7.69306C-0.0956913 7.31033 -0.0956913 6.68986 0.287074 6.3069L6.30697 0.286978C6.49825 0.0958836 6.74914 0 7.00002 0C7.25077 0 7.50165 0.0956913 7.69303 0.286978L13.7127 6.30687C14.0955 6.68983 14.0955 7.3103 13.7127 7.69303C13.3298 8.07596 12.709 8.07596 12.3261 7.69303L7.00002 2.36686L1.67362 7.69306C1.29066 8.0758 0.669935 8.0758 0.287074 7.69306ZM7.69303 6.15236C7.50165 5.96126 7.25077 5.86538 7.00002 5.86538C6.74914 5.86538 6.49825 5.96126 6.30697 6.15236L0.287074 12.1722C-0.0956913 12.5552 -0.0956913 13.176 0.287074 13.5587C0.669935 13.9414 1.29066 13.9414 1.67362 13.5587L7.00002 8.23233L12.3263 13.5587C12.7092 13.9414 13.33 13.9414 13.7129 13.5587C14.0957 13.1758 14.0957 12.555 13.7129 12.1721L7.69303 6.15236Z" fill="white"/>
</svg>
