<svg width="16" height="16" viewBox="0 0 16 16" fill="none" xmlns="http://www.w3.org/2000/svg">
<path d="M8.02858 0.00804768C8.12236 -0.00898351 5.20569 -0.131233 2.81285 1.92926L2.11429 0.764732C2.01176 0.594452 1.81217 0.509296 1.61992 0.546389C1.42492 0.585764 1.27661 0.743232 1.2482 0.939607L0.585361 5.57993C0.540923 5.88806 0.806079 6.15399 1.11545 6.11049L5.75534 5.44765C5.95218 5.41928 6.10965 5.27096 6.14903 5.0764C6.1884 4.88184 6.10049 4.68365 5.93021 4.58156L4.82425 3.91781C6.33568 2.73257 7.92258 2.83669 8.01667 2.82057C11.0479 2.82057 13.1636 5.35978 13.1564 7.97817C13.1637 10.6128 11.0419 13.133 8.01392 13.133C4.66884 12.9809 2.83713 10.4549 2.84398 7.97814C2.84398 7.71249 2.62945 7.50802 2.37523 7.50802H0.469049C0.210862 7.50802 0.00120675 7.71677 0.000300506 7.97492C-0.0166369 12.5441 3.7861 16.0009 8.02583 16.0009C12.0863 16.0009 16.0181 12.658 16.0002 7.97861C16.0175 3.29144 12.0688 0.00804768 8.02858 0.00804768V0.00804768Z" fill="url(#paint0_linear)"/>
<defs>
<linearGradient id="paint0_linear" x1="8.00024" y1="16.0009" x2="8.00024" y2="0.000986099" gradientUnits="userSpaceOnUse">
<stop stop-color="#FF9D43"/>
<stop offset="1" stop-color="#FFD011"/>
</linearGradient>
</defs>
</svg>
