<svg class="sprite-icons" xmlns="http://www.w3.org/2000/svg">

    <symbol id="icon-send" viewBox="0 0 16 8">
        <!-- width="16" height="8" viewBox="0 0 16 8" -->
        <title>Send</title>
        <path d="M12.01 3H0V5H12.01V8L16 4L12.01 0V3Z" fill="#3A3FB0"/>
    </symbol>

    <symbol id="rating-star" viewBox="0 0 18 17">
        <!-- width="18" height="17" viewBox="0 0 18 17" -->
        <title>Star</title>
        <path d="M9.00008 13.3916L14.1501 16.5L12.7834 10.6416L17.3334 6.69996L11.3417 6.19163L9.00008 0.666626L6.65841 6.19163L0.666748 6.69996L5.21675 10.6416L3.85008 16.5L9.00008 13.3916Z" fill="#FFD011"/>
    </symbol>

    <symbol id="icon-top" viewBox="0 0 14 14">
        <!-- width="14" height="14" viewBox="0 0 14 14" -->
        <title>ToTpo</title>
        <path d="M0.287074 7.69306C-0.0956913 7.31033 -0.0956913 6.68986 0.287074 6.3069L6.30697 0.286978C6.49825 0.0958836 6.74914 0 7.00002 0C7.25077 0 7.50165 0.0956913 7.69303 0.286978L13.7127 6.30687C14.0955 6.68983 14.0955 7.3103 13.7127 7.69303C13.3298 8.07596 12.709 8.07596 12.3261 7.69303L7.00002 2.36686L1.67362 7.69306C1.29066 8.0758 0.669935 8.0758 0.287074 7.69306ZM7.69303 6.15236C7.50165 5.96126 7.25077 5.86538 7.00002 5.86538C6.74914 5.86538 6.49825 5.96126 6.30697 6.15236L0.287074 12.1722C-0.0956913 12.5552 -0.0956913 13.176 0.287074 13.5587C0.669935 13.9414 1.29066 13.9414 1.67362 13.5587L7.00002 8.23233L12.3263 13.5587C12.7092 13.9414 13.33 13.9414 13.7129 13.5587C14.0957 13.1758 14.0957 12.555 13.7129 12.1721L7.69303 6.15236Z" fill="white"/>
    </symbol>

    <symbol id="icon-check" viewBox="0 0 20 20">
        <!-- width="20" height="20" viewBox="0 0 20 20" -->
        <title>Check</title>
        <path d="M20 2.29126C20 1.02753 18.9725 0 17.7087 0H2.29126C1.02753 0 0 1.02753 0 2.29126V17.7075C0 18.9725 1.02753 20 2.29126 20H17.7075C18.9725 20 20 18.9725 20 17.7087V2.29126ZM15.0687 6.70258C15.3937 7.02759 15.3937 7.55493 15.0687 7.88116L9.6524 13.2974C9.49005 13.4601 9.27612 13.5413 9.06372 13.5413C8.8501 13.5413 8.63739 13.4601 8.47504 13.2974L5.7663 10.5887C5.44128 10.2637 5.44128 9.73633 5.7663 9.4101C6.09131 9.08386 6.61865 9.08508 6.94489 9.4101L9.06372 11.5286L13.8913 6.70135C14.2151 6.37756 14.7424 6.37756 15.0687 6.70258Z"/>
    </symbol>

    <symbol id="icon-load" viewBox="0 0 16 16">
        <!-- width="16" height="16" viewBox="0 0 16 16" -->
        <title>Load</title>
        <path d="M8.02858 0.00804768C8.12236 -0.00898351 5.20569 -0.131233 2.81285 1.92926L2.11429 0.764732C2.01176 0.594452 1.81217 0.509296 1.61992 0.546389C1.42492 0.585764 1.27661 0.743232 1.2482 0.939607L0.585361 5.57993C0.540923 5.88806 0.806079 6.15399 1.11545 6.11049L5.75534 5.44765C5.95218 5.41928 6.10965 5.27096 6.14903 5.0764C6.1884 4.88184 6.10049 4.68365 5.93021 4.58156L4.82425 3.91781C6.33568 2.73257 7.92258 2.83669 8.01667 2.82057C11.0479 2.82057 13.1636 5.35978 13.1564 7.97817C13.1637 10.6128 11.0419 13.133 8.01392 13.133C4.66884 12.9809 2.83713 10.4549 2.84398 7.97814C2.84398 7.71249 2.62945 7.50802 2.37523 7.50802H0.469049C0.210862 7.50802 0.00120675 7.71677 0.000300506 7.97492C-0.0166369 12.5441 3.7861 16.0009 8.02583 16.0009C12.0863 16.0009 16.0181 12.658 16.0002 7.97861C16.0175 3.29144 12.0688 0.00804768 8.02858 0.00804768V0.00804768Z" fill="#333"/>
    </symbol>

    <symbol id="icon-info" viewBox="0 0 26 26">
        <!-- width="26" height="26" viewBox="0 0 26 26" -->
        <title>Info</title>
        <path d="M13 0.5C6.1 0.5 0.5 6.1 0.5 13C0.5 19.9 6.1 25.5 13 25.5C19.9 25.5 25.5 19.9 25.5 13C25.5 6.1 19.9 0.5 13 0.5ZM14.25 19.25H11.75V11.75H14.25V19.25ZM14.25 9.25H11.75V6.75H14.25V9.25Z" fill="#DEE1EF"/>
    </symbol>

    <symbol id="icon-shares" viewBox="0 0 15 16">
        <!-- width="15" height="16" viewBox="0 0 15 16" -->
        <title>Shares</title>
        <path d="M11.5238 10C10.7837 10 10.1034 10.2443 9.5664 10.653L6.2112 8.65128C6.31056 8.22226 6.31056 7.77771 6.2112 7.34869L9.5664 5.347C10.1034 5.75566 10.7837 6 11.5238 6C13.2596 6 14.6667 4.65684 14.6667 3C14.6667 1.34316 13.2596 0 11.5238 0C9.78807 0 8.38095 1.34316 8.38095 3C8.38095 3.22369 8.40682 3.44156 8.45546 3.65128L5.10027 5.65297C4.56326 5.24434 3.883 5 3.14286 5C1.40712 5 0 6.34316 0 8C0 9.65684 1.40712 11 3.14286 11C3.883 11 4.56326 10.7557 5.10027 10.347L8.45546 12.3487C8.40587 12.5626 8.38089 12.781 8.38095 13C8.38095 14.6568 9.78807 16 11.5238 16C13.2596 16 14.6667 14.6568 14.6667 13C14.6667 11.3432 13.2596 10 11.5238 10Z" />
    </symbol>

</svg>