<svg width="15" height="15" viewBox="0 0 15 15" fill="none" xmlns="http://www.w3.org/2000/svg">
<path d="M3.35437 4.6875H0V15H3.35437V4.6875Z" fill="#4637A5"/>
<path d="M12.4913 4.80844C12.4556 4.79719 12.4219 4.785 12.3844 4.77469C12.3394 4.76437 12.2944 4.75594 12.2484 4.74844C12.0703 4.71281 11.8753 4.6875 11.6466 4.6875C9.69094 4.6875 8.45062 6.10969 8.04188 6.65906V4.6875H4.6875V15H8.04188V9.375C8.04188 9.375 10.5769 5.84438 11.6466 8.4375C11.6466 10.7522 11.6466 15 11.6466 15H15V8.04094C15 6.48281 13.9322 5.18438 12.4913 4.80844Z" fill="#4637A5"/>
<path d="M1.64062 3.28125C2.54672 3.28125 3.28125 2.54672 3.28125 1.64062C3.28125 0.734533 2.54672 0 1.64062 0C0.734533 0 0 0.734533 0 1.64062C0 2.54672 0.734533 3.28125 1.64062 3.28125Z" fill="#4637A5"/>
</svg>
