<svg width="15" height="13" viewBox="0 0 15 13" fill="none" xmlns="http://www.w3.org/2000/svg">
<path d="M15 1.84906C14.4422 2.09375 13.8478 2.25594 13.2281 2.33469C13.8656 1.95406 14.3522 1.35594 14.5809 0.635C13.9866 0.989375 13.3303 1.23969 12.6309 1.37938C12.0666 0.778438 11.2622 0.40625 10.3847 0.40625C8.68219 0.40625 7.31156 1.78813 7.31156 3.48219C7.31156 3.72594 7.33219 3.96031 7.38281 4.18344C4.82625 4.05875 2.56406 2.83344 1.04437 0.966875C0.779062 1.42719 0.623438 1.95406 0.623438 2.52125C0.623438 3.58625 1.17188 4.53031 1.98937 5.07687C1.49531 5.0675 1.01063 4.92406 0.6 4.69812C0.6 4.7075 0.6 4.71969 0.6 4.73187C0.6 6.22625 1.66594 7.4675 3.06375 7.75344C2.81344 7.82188 2.54063 7.85469 2.2575 7.85469C2.06063 7.85469 1.86187 7.84344 1.67531 7.80219C2.07375 9.02 3.20438 9.91531 4.54875 9.94438C3.5025 10.7628 2.17406 11.2559 0.735938 11.2559C0.48375 11.2559 0.241875 11.2447 0 11.2137C1.36219 12.0922 2.97656 12.5938 4.7175 12.5938C10.3763 12.5938 13.47 7.90625 13.47 3.84312C13.47 3.70719 13.4653 3.57594 13.4587 3.44563C14.0691 3.0125 14.5819 2.47156 15 1.84906Z" fill="#4637A5"/>
</svg>
