<svg width="15" height="11" viewBox="0 0 15 11" fill="none" xmlns="http://www.w3.org/2000/svg">
<path d="M14.3625 1.3375C13.9556 0.61375 13.5141 0.480625 12.615 0.43C11.7169 0.369063 9.45844 0.34375 7.50187 0.34375C5.54156 0.34375 3.28219 0.369063 2.385 0.429063C1.48781 0.480625 1.04531 0.612812 0.634687 1.3375C0.215625 2.06031 0 3.30531 0 5.49719C0 5.49906 0 5.5 0 5.5C0 5.50187 0 5.50281 0 5.50281V5.50469C0 7.68719 0.215625 8.94156 0.634687 9.65687C1.04531 10.3806 1.48687 10.5119 2.38406 10.5728C3.28219 10.6253 5.54156 10.6562 7.50187 10.6562C9.45844 10.6562 11.7169 10.6253 12.6159 10.5737C13.515 10.5128 13.9566 10.3816 14.3634 9.65781C14.7863 8.9425 15 7.68812 15 5.50562C15 5.50562 15 5.50281 15 5.50094C15 5.50094 15 5.49906 15 5.49813C15 3.30531 14.7863 2.06031 14.3625 1.3375ZM5.625 8.3125V2.6875L10.3125 5.5L5.625 8.3125Z" fill="#4637A5"/>
</svg>
