<?xml version="1.0" encoding="utf-8"?>
<!-- Generator: Adobe Illustrator 24.0.1, SVG Export Plug-In . SVG Version: 6.00 Build 0)  -->
<svg version="1.1" id="Слой_1" xmlns="http://www.w3.org/2000/svg" xmlns:xlink="http://www.w3.org/1999/xlink" x="0px" y="0px"
	 viewBox="0 0 524.7 183.4" style="enable-background:new 0 0 524.7 183.4;" xml:space="preserve">
<style type="text/css">
	.st0{fill:#2B2A29;}
	.st1{fill-rule:evenodd;clip-rule:evenodd;fill:#FFED00;}
	.st2{fill-rule:evenodd;clip-rule:evenodd;fill:#2B2A29;}
</style>
<g id="Слой_x0020_1">
	<g id="_2380626631408">
		<path class="st0" d="M168.6,89.6L136.9,0h30.4l19.4,59.2h0.5L207.1,0h27.2l-31.7,89.6l33.3,93.8h-30.4l-21-63.9h-0.5l-21.5,63.9
			h-27.2L168.6,89.6L168.6,89.6z M249.6,0h44c14.3,0,25.1,3.8,32.2,11.5c7.2,7.7,10.7,18.9,10.7,33.8v92.7
			c0,14.8-3.6,26.1-10.7,33.8c-7.2,7.7-17.9,11.5-32.2,11.5h-44V0L249.6,0z M293.1,157.2c4.7,0,8.3-1.4,10.9-4.2
			c2.5-2.8,3.8-7.3,3.8-13.6V44c0-6.3-1.3-10.8-3.8-13.6s-6.2-4.2-10.9-4.2h-14.7v131H293.1z M355.9,0h28.8v157.2h47.4v26.2h-76.2V0
			z M446.1,0h78.6v26.2h-49.8v48.5h39.6v26.2h-39.6v56.3h49.8v26.2h-78.6V0z"/>
		<path class="st1" d="M65.7,0c36.3,0,65.7,29.4,65.7,65.7c0,36.3-29.4,65.7-65.7,65.7C29.4,131.5,0,102,0,65.7
			C0,29.4,29.4,0,65.7,0z M65.7,26.4C87.4,26.4,105,44,105,65.7S87.4,105,65.7,105S26.4,87.4,26.4,65.7S44,26.4,65.7,26.4z"/>
		<rect x="40" y="154.4" class="st2" width="51.4" height="11.6"/>
		<rect x="40" y="137.1" class="st2" width="51.4" height="11.6"/>
		<rect x="40" y="171.8" class="st2" width="51.4" height="11.6"/>
	</g>
</g>
</svg>
